<svg xmlns="http://www.w3.org/2000/svg" xmlns:xlink="http://www.w3.org/1999/xlink" width="500" zoomAndPan="magnify" viewBox="0 0 375 374.999991" height="500" preserveAspectRatio="xMidYMid meet" version="1.0"><defs><clipPath id="54e54009f0"><path d="M 163.414062 152.152344 L 280 152.152344 L 280 260.78125 L 163.414062 260.78125 Z M 163.414062 152.152344 " clip-rule="nonzero"/></clipPath><clipPath id="1288f3b0ff"><path d="M 166.554688 260.582031 L 176.492188 247.484375 C 182.550781 239.605469 189.992188 233.28125 199.132812 229.390625 C 210.222656 224.671875 221.703125 220.828125 232.75 215.996094 C 239.925781 212.855469 247.980469 210.222656 248.222656 199.78125 C 248.351562 194.125 250.230469 188.53125 250.867188 182.863281 C 251.523438 176.980469 254.535156 173.480469 260.039062 171.660156 C 265.128906 169.960938 270.242188 168.21875 275.144531 166.074219 C 280.601562 163.683594 281.410156 157.28125 276.34375 154.257812 C 273.550781 152.59375 269.492188 152.214844 266.15625 152.582031 C 262.636719 152.976562 259.347656 155.066406 255.886719 156.207031 C 232.957031 163.71875 237.261719 160.902344 234.144531 181.191406 C 232.136719 194.242188 227.726562 201.535156 214.675781 204.386719 C 206.957031 206.070312 199.964844 210.941406 192.277344 213.015625 C 178.824219 216.640625 171.921875 227.316406 164.085938 237.136719 C 163.566406 237.78125 163.5 239.015625 163.613281 239.917969 L 166.601562 260.59375 " clip-rule="nonzero"/></clipPath><clipPath id="f514d65f43"><path d="M 83 129 L 238 129 L 238 200 L 83 200 Z M 83 129 " clip-rule="nonzero"/></clipPath><clipPath id="01351ee78b"><path d="M 153.957031 129.414062 C 151.09375 129.414062 148.195312 129.976562 145.265625 131.074219 C 132.859375 135.722656 123.375 143.511719 118.042969 155.964844 C 112.976562 167.804688 112.332031 169.179688 101.96875 169.179688 C 100.617188 169.179688 99.09375 169.15625 97.375 169.132812 C 97.261719 169.132812 97.144531 169.132812 97.03125 169.132812 C 93.175781 169.132812 90.128906 170.203125 88.605469 174.152344 L 84.082031 185.96875 C 83.484375 187.804688 83.171875 189.441406 83.160156 190.917969 L 83.160156 191.070312 C 83.183594 194.820312 85.179688 197.542969 89.425781 199.792969 L 92.171875 193.15625 C 96.316406 183.046875 96.015625 181.0625 101.644531 181.0625 C 103.539062 181.0625 106.101562 181.28125 109.734375 181.503906 C 110.40625 181.535156 111.050781 181.558594 111.675781 181.558594 C 118.25 181.558594 122.347656 179.261719 124.632812 172.523438 C 125.71875 169.316406 127.714844 166.410156 129.285156 163.363281 C 132.757812 156.65625 137.890625 151.742188 144.710938 148.429688 C 147.988281 146.835938 151.175781 145.9375 154.382812 145.9375 C 157.3125 145.9375 160.277344 146.675781 163.371094 148.3125 C 172.027344 152.859375 181.003906 156.820312 189.992188 160.695312 C 191.875 161.503906 194.207031 162.230469 196.28125 162.230469 C 196.976562 162.230469 197.632812 162.148438 198.234375 161.964844 C 209.796875 158.457031 221.253906 154.570312 232.597656 150.390625 C 237.917969 148.429688 238.4375 142.566406 234.132812 138.839844 C 232.054688 137.039062 229.875 136.394531 227.625 136.394531 C 225.664062 136.394531 223.65625 136.890625 221.625 137.535156 C 214.675781 139.761719 207.855469 142.53125 200.761719 144.042969 C 199.191406 144.378906 197.507812 144.550781 195.796875 144.550781 C 193.144531 144.550781 190.457031 144.136719 188.148438 143.25 C 180.105469 140.167969 172.429688 136.082031 164.746094 132.148438 C 161.15625 130.3125 157.566406 129.414062 153.945312 129.414062 Z M 153.957031 129.414062 " clip-rule="nonzero"/></clipPath><clipPath id="9bb13715d3"><path d="M 103.195312 99 L 247 99 L 247 143.53125 L 103.195312 143.53125 Z M 103.195312 99 " clip-rule="nonzero"/></clipPath><clipPath id="d9a1ad0a31"><path d="M 196.492188 132.007812 L 208.617188 128.375 C 219.464844 125.085938 230.40625 122.074219 241.078125 118.300781 C 243.527344 117.433594 247.035156 113.359375 246.574219 111.8125 C 245.753906 109.113281 242.558594 106.597656 239.753906 105.203125 C 237.847656 104.253906 234.8125 104.972656 232.472656 105.605469 C 224.3125 107.820312 216.121094 109.96875 208.167969 112.804688 C 200.460938 115.566406 193.386719 115.851562 186.175781 111.328125 C 181.972656 108.6875 176.953125 107.335938 172.765625 104.695312 C 163.796875 99.027344 154.761719 97.945312 144.839844 102.015625 C 140.441406 103.828125 135.550781 104.429688 130.910156 105.652344 C 118.160156 109.03125 108.960938 116.570312 104.554688 129.160156 C 103.550781 132.042969 103.585938 135.609375 104.230469 138.632812 C 104.613281 140.421875 106.988281 142.796875 108.695312 142.996094 C 110.164062 143.167969 112.746094 140.964844 113.460938 139.242188 C 117.941406 128.546875 126.0625 122.625 137.039062 120.007812 C 141.527344 118.933594 145.902344 117.007812 150.425781 116.613281 C 154.972656 116.222656 160.011719 116.257812 164.179688 117.847656 C 172.949219 121.195312 181.257812 125.730469 189.796875 129.675781 L 196.480469 132.007812 " clip-rule="nonzero"/></clipPath><clipPath id="99492fea5e"><path d="M 135 183.1875 L 194 183.1875 L 194 292.679688 L 135 292.679688 Z M 135 183.1875 " clip-rule="nonzero"/></clipPath><clipPath id="0a894f02a9"><path d="M 181.453125 183.347656 C 180.554688 183.347656 179.699219 183.464844 178.949219 183.707031 C 166.800781 187.675781 156.738281 194.84375 150.355469 206.40625 L 145.945312 213.097656 C 140.003906 223.160156 133.632812 232.992188 137.824219 245.777344 C 139.601562 251.203125 139.875 257.109375 141.03125 262.742188 C 142.011719 267.484375 141.699219 271.71875 138.609375 275.816406 C 136.96875 277.984375 136.378906 280.953125 135.953125 281.988281 C 135.953125 288.554688 138.203125 292.0625 141.285156 292.074219 L 141.308594 292.074219 C 142 292.074219 142.726562 291.890625 143.488281 291.542969 C 149.617188 288.660156 156.875 274.511719 155.652344 267.703125 C 154.1875 259.578125 152.363281 251.5 151.277344 243.320312 C 150.792969 239.683594 150.5625 235.230469 152.203125 232.230469 C 157.589844 222.328125 161.800781 211.25 173.101562 205.941406 L 188.308594 198.535156 C 194.414062 195.605469 195.554688 189.753906 190.003906 186.015625 C 187.753906 184.503906 184.363281 183.347656 181.464844 183.347656 Z M 181.453125 183.347656 " clip-rule="nonzero"/></clipPath><clipPath id="317eafe0b0"><path d="M 109 177 L 145 177 L 145 246 L 109 246 Z M 109 177 " clip-rule="nonzero"/></clipPath><clipPath id="10d9a8e496"><path d="M 144.898438 185.839844 C 143.144531 183.28125 141.722656 178.777344 138.988281 177.730469 C 134.394531 175.976562 133.414062 181.28125 131.960938 184.339844 L 120.917969 209 C 117.0625 217.527344 112.621094 225.824219 109.515625 234.609375 C 108.546875 237.34375 110.082031 242.824219 112.332031 244.417969 C 116.105469 247.105469 117.628906 242.375 119.011719 239.628906 C 121.933594 233.8125 124.367188 227.742188 127.414062 221.996094 L 141.621094 196.386719 C 143.097656 193.574219 143.582031 190.238281 144.90625 185.839844 " clip-rule="nonzero"/></clipPath><clipPath id="183a595692"><path d="M 182 227.15625 L 255.457031 227.15625 L 255.457031 253.882812 L 182 253.882812 Z M 182 227.15625 " clip-rule="nonzero"/></clipPath><clipPath id="a99f299c93"><path d="M 182.007812 253.753906 C 185.886719 252.195312 188.332031 251.269531 190.722656 250.242188 C 199.527344 246.449219 208.191406 242.269531 217.179688 238.992188 C 220.148438 237.917969 224.441406 238.128906 227.277344 239.5 C 236.753906 244.070312 250.460938 239.175781 255.078125 227.996094 C 251.453125 229.449219 248.394531 230.328125 245.695312 231.851562 C 240.019531 235.035156 235.101562 234.378906 229.5625 230.972656 C 226.722656 229.230469 222.15625 228.816406 218.832031 229.644531 C 212.75 231.179688 206.738281 233.558594 201.210938 236.546875 C 194.078125 240.402344 187.292969 245.027344 182.007812 253.753906 " clip-rule="nonzero"/></clipPath><clipPath id="812e607ca0"><path d="M 156 243 L 226 243 L 226 290.953125 L 156 290.953125 Z M 156 243 " clip-rule="nonzero"/></clipPath><clipPath id="3531067a30"><path d="M 225.5 246.957031 L 225.71875 245.628906 C 222.871094 244.601562 219.558594 243.214844 216.996094 244.070312 C 209.023438 246.734375 201.429688 250.175781 195.277344 256.5 C 186.496094 265.523438 177.867188 274.789062 165.4375 279.40625 C 161.953125 280.699219 159.460938 284.691406 156.515625 287.4375 L 158.535156 290.171875 C 167.132812 285.507812 177.105469 282.3125 184.039062 275.875 C 196.214844 264.566406 207.9375 253.222656 224.164062 247.980469 L 225.050781 247.300781 " clip-rule="nonzero"/></clipPath><clipPath id="bc8a0255df"><path d="M 262 178.015625 L 292 178.015625 L 292 199.570312 L 262 199.570312 Z M 262 178.015625 " clip-rule="nonzero"/></clipPath><clipPath id="0a14a85c64"><path d="M 282.21875 178.433594 C 280.28125 178.433594 278.296875 179 276.300781 180.046875 C 273.609375 181.46875 271.015625 183.300781 268.140625 184.097656 C 263.882812 185.277344 261.308594 187.976562 262.820312 191.832031 C 263.984375 194.761719 267.496094 196.769531 270.171875 199.378906 C 276.691406 196.628906 281.871094 194.414062 287.066406 192.257812 C 290.15625 190.976562 291.808594 188.714844 291.84375 186.324219 L 291.84375 186.152344 C 291.808594 184.273438 290.78125 182.320312 288.679688 180.742188 C 286.605469 179.171875 284.433594 178.433594 282.21875 178.433594 Z M 282.21875 178.433594 " clip-rule="nonzero"/></clipPath><clipPath id="1407716560"><path d="M 95.453125 192 L 113 192 L 113 221 L 95.453125 221 Z M 95.453125 192 " clip-rule="nonzero"/></clipPath><clipPath id="efda5ff6d7"><path d="M 95.460938 214.019531 C 97.410156 216.328125 99.105469 218.613281 101.183594 220.496094 C 101.53125 220.804688 104.125 219.640625 104.589844 218.636719 C 107.589844 212.242188 110.691406 205.851562 112.816406 199.144531 C 113.417969 197.253906 111.421875 193.628906 109.550781 192.210938 C 108.535156 191.4375 104.035156 193.042969 103.238281 194.632812 C 100.296875 200.519531 98.230469 206.867188 95.460938 214.007812 " clip-rule="nonzero"/></clipPath><clipPath id="a28adc6d56"><path d="M 237.394531 205 L 280 205 L 280 228 L 237.394531 228 Z M 237.394531 205 " clip-rule="nonzero"/></clipPath><clipPath id="152b4ed32c"><path d="M 279.566406 205.203125 C 277.535156 205.378906 276.75 205.25 276.125 205.515625 L 244.035156 219.191406 C 240.90625 220.597656 237.558594 222.582031 237.894531 227.09375 L 239.335938 227.855469 C 252.078125 222.179688 264.472656 216.699219 276.703125 210.882812 C 278.007812 210.269531 278.375 207.675781 279.554688 205.203125 " clip-rule="nonzero"/></clipPath><clipPath id="e64df46161"><path d="M 202 172 L 221.910156 172 L 221.910156 188.363281 L 202 188.363281 Z M 202 172 " clip-rule="nonzero"/></clipPath><clipPath id="03a9bf7c58"><path d="M 212.832031 188.171875 C 218.414062 188.160156 221.601562 185.691406 221.53125 181.433594 C 221.460938 176.921875 216.523438 172.859375 211.03125 172.789062 C 205.964844 172.730469 201.960938 176.136719 202.042969 180.441406 C 202.132812 185.320312 206.136719 188.183594 212.84375 188.171875 " clip-rule="nonzero"/></clipPath><clipPath id="ca472eeffd"><path d="M 149 158.1875 L 169 158.1875 L 169 175 L 149 175 Z M 149 158.1875 " clip-rule="nonzero"/></clipPath><clipPath id="6987cb8bd8"><path d="M 159.515625 174.554688 C 165.160156 174.613281 168.726562 171.855469 168.738281 167.402344 C 168.761719 162.773438 164.007812 158.746094 158.421875 158.652344 C 152.996094 158.574219 149.546875 161.550781 149.617188 166.28125 C 149.6875 171.023438 153.828125 174.484375 159.515625 174.554688 " clip-rule="nonzero"/></clipPath><clipPath id="b19c46b531"><path d="M 245.136719 127.152344 L 263 127.152344 L 263 142.667969 L 245.136719 142.667969 Z M 245.136719 127.152344 " clip-rule="nonzero"/></clipPath><clipPath id="0ccc55e0ee"><path d="M 253.53125 127.84375 C 248.648438 127.761719 245.394531 130.554688 245.476562 134.742188 C 245.558594 138.910156 249.769531 142.519531 254.652344 142.394531 C 258.863281 142.289062 262.289062 140.753906 262.785156 136.011719 C 263.234375 131.777344 258.679688 127.921875 253.519531 127.84375 " clip-rule="nonzero"/></clipPath><clipPath id="121f426ec0"><path d="M 187.5 89 L 205 89 L 205 103.875 L 187.5 103.875 Z M 187.5 89 " clip-rule="nonzero"/></clipPath><clipPath id="6eb10a37d7"><path d="M 195.222656 89.070312 C 191.480469 89.347656 188.226562 90.925781 187.972656 95.691406 C 187.753906 99.707031 191.632812 102.941406 196.523438 103.007812 C 200.714844 103.066406 204.222656 101.914062 204.613281 96.960938 C 204.925781 92.980469 200.519531 89.195312 195.222656 89.070312 " clip-rule="nonzero"/></clipPath><clipPath id="b22e22000c"><path d="M 211 82.320312 L 227.929688 82.320312 L 227.929688 96.976562 L 211 96.976562 Z M 211 82.320312 " clip-rule="nonzero"/></clipPath><clipPath id="b183f5406f"><path d="M 218.84375 82.917969 C 218.761719 82.917969 218.679688 82.917969 218.589844 82.929688 C 214.503906 83.113281 211.296875 85.121094 211.46875 89.472656 C 211.652344 94.203125 215.207031 96.167969 218.902344 96.640625 C 219.015625 96.640625 219.121094 96.640625 219.222656 96.640625 C 224.046875 96.640625 227.199219 94.191406 227.40625 90.777344 C 227.648438 86.921875 223.492188 82.976562 219.003906 82.929688 Z M 218.84375 82.917969 " clip-rule="nonzero"/></clipPath><clipPath id="3dfecaf38a"><path d="M 229 239.226562 L 256 239.226562 L 256 256.46875 L 229 256.46875 Z M 229 239.226562 " clip-rule="nonzero"/></clipPath><clipPath id="e6b43f875f"><path d="M 229.550781 256.464844 C 239.808594 253.488281 248.835938 248.535156 255.539062 239.949219 C 245.050781 242.5 235.804688 247.058594 229.550781 256.464844 " clip-rule="nonzero"/></clipPath><clipPath id="a33c7c88f3"><path d="M 121 253 L 133 253 L 133 268.539062 L 121 268.539062 Z M 121 253 " clip-rule="nonzero"/></clipPath><clipPath id="a7508cfb9d"><path d="M 130.726562 265.695312 C 132.550781 263.792969 132.6875 260.835938 131.050781 258.761719 C 129.238281 256.476562 127.726562 254.558594 125.785156 253.9375 C 121.828125 252.667969 120.953125 256.777344 121.042969 259.960938 C 121.148438 263.988281 122.253906 268.175781 127.078125 268.199219 C 128.199219 268.199219 129.328125 267.136719 130.726562 265.683594 " clip-rule="nonzero"/></clipPath><clipPath id="5c9fbfdc4f"><path d="M 96 148.703125 L 107 148.703125 L 107 163 L 96 163 Z M 96 148.703125 " clip-rule="nonzero"/></clipPath><clipPath id="fbc41140c9"><path d="M 99.128906 149.480469 C 96.855469 151.082031 95.863281 153.945312 96.382812 156.679688 C 97.007812 159.992188 98.355469 162.21875 101.761719 162.484375 C 103.167969 162.601562 105.871094 159.390625 106.179688 157.429688 C 106.816406 153.472656 105.363281 149.386719 100.746094 148.914062 L 99.671875 149.097656 " clip-rule="nonzero"/></clipPath><clipPath id="83c7dc3c74"><path d="M 213 255 L 225 255 L 225 266.816406 L 213 266.816406 Z M 213 255 " clip-rule="nonzero"/></clipPath><clipPath id="b7dc48f7d4"><path d="M 224.695312 255.679688 C 217.988281 254.558594 213.40625 258.785156 213.257812 266.042969 C 217.769531 261.957031 221.230469 258.816406 224.695312 255.679688 " clip-rule="nonzero"/></clipPath><clipPath id="83b8d62791"><path d="M 196.101562 259.054688 L 208.144531 259.054688 L 208.144531 270 L 196.101562 270 Z M 196.101562 259.054688 " clip-rule="nonzero"/></clipPath><clipPath id="86eb0b627c"><path d="M 196.570312 269.828125 C 203.472656 270.867188 208.019531 266.769531 208.121094 259.589844 C 203.585938 263.605469 200.078125 266.722656 196.570312 269.828125 " clip-rule="nonzero"/></clipPath><clipPath id="b44f609fb9"><path d="M 173 261 L 184.917969 261 L 184.917969 271.988281 L 173 271.988281 Z M 173 261 " clip-rule="nonzero"/></clipPath><clipPath id="428b9ae161"><path d="M 184.882812 261.34375 C 178.5 260.019531 173.734375 264.242188 173.144531 271.695312 C 177.820312 267.578125 181.351562 264.460938 184.882812 261.34375 " clip-rule="nonzero"/></clipPath><clipPath id="f693b64a70"><path d="M 258.039062 220.261719 L 270.941406 220.261719 L 270.941406 232 L 258.039062 232 Z M 258.039062 220.261719 " clip-rule="nonzero"/></clipPath><clipPath id="c101030884"><path d="M 270.550781 223.679688 L 268.128906 220.886719 L 258.699219 229.425781 C 259.417969 230.246094 260.132812 231.078125 260.835938 231.894531 Z M 270.550781 223.679688 " clip-rule="nonzero"/></clipPath></defs><g clip-path="url(#54e54009f0)"><g clip-path="url(#1288f3b0ff)"><path fill="#00fffc" d="M 77.390625 77.148438 L 297.609375 77.148438 L 297.609375 297.851562 L 77.390625 297.851562 Z M 77.390625 77.148438 " fill-opacity="1" fill-rule="nonzero"/></g></g><g clip-path="url(#f514d65f43)"><g clip-path="url(#01351ee78b)"><path fill="#00fffc" d="M 77.390625 77.148438 L 297.609375 77.148438 L 297.609375 297.851562 L 77.390625 297.851562 Z M 77.390625 77.148438 " fill-opacity="1" fill-rule="nonzero"/></g></g><g clip-path="url(#9bb13715d3)"><g clip-path="url(#d9a1ad0a31)"><path fill="#00fffc" d="M 77.390625 77.148438 L 297.609375 77.148438 L 297.609375 297.851562 L 77.390625 297.851562 Z M 77.390625 77.148438 " fill-opacity="1" fill-rule="nonzero"/></g></g><g clip-path="url(#99492fea5e)"><g clip-path="url(#0a894f02a9)"><path fill="#00fffc" d="M 77.390625 77.148438 L 297.609375 77.148438 L 297.609375 297.851562 L 77.390625 297.851562 Z M 77.390625 77.148438 " fill-opacity="1" fill-rule="nonzero"/></g></g><g clip-path="url(#317eafe0b0)"><g clip-path="url(#10d9a8e496)"><path fill="#00fffc" d="M 77.390625 77.148438 L 297.609375 77.148438 L 297.609375 297.851562 L 77.390625 297.851562 Z M 77.390625 77.148438 " fill-opacity="1" fill-rule="nonzero"/></g></g><g clip-path="url(#183a595692)"><g clip-path="url(#a99f299c93)"><path fill="#00fffc" d="M 77.390625 77.148438 L 297.609375 77.148438 L 297.609375 297.851562 L 77.390625 297.851562 Z M 77.390625 77.148438 " fill-opacity="1" fill-rule="nonzero"/></g></g><g clip-path="url(#812e607ca0)"><g clip-path="url(#3531067a30)"><path fill="#00fffc" d="M 77.390625 77.148438 L 297.609375 77.148438 L 297.609375 297.851562 L 77.390625 297.851562 Z M 77.390625 77.148438 " fill-opacity="1" fill-rule="nonzero"/></g></g><g clip-path="url(#bc8a0255df)"><g clip-path="url(#0a14a85c64)"><path fill="#ffffff" d="M 77.390625 77.148438 L 297.609375 77.148438 L 297.609375 297.851562 L 77.390625 297.851562 Z M 77.390625 77.148438 " fill-opacity="1" fill-rule="nonzero"/></g></g><g clip-path="url(#1407716560)"><g clip-path="url(#efda5ff6d7)"><path fill="#ffffff" d="M 77.390625 77.148438 L 297.609375 77.148438 L 297.609375 297.851562 L 77.390625 297.851562 Z M 77.390625 77.148438 " fill-opacity="1" fill-rule="nonzero"/></g></g><g clip-path="url(#a28adc6d56)"><g clip-path="url(#152b4ed32c)"><path fill="#00fffc" d="M 77.390625 77.148438 L 297.609375 77.148438 L 297.609375 297.851562 L 77.390625 297.851562 Z M 77.390625 77.148438 " fill-opacity="1" fill-rule="nonzero"/></g></g><g clip-path="url(#e64df46161)"><g clip-path="url(#03a9bf7c58)"><path fill="#ffffff" d="M 77.390625 77.148438 L 297.609375 77.148438 L 297.609375 297.851562 L 77.390625 297.851562 Z M 77.390625 77.148438 " fill-opacity="1" fill-rule="nonzero"/></g></g><g clip-path="url(#ca472eeffd)"><g clip-path="url(#6987cb8bd8)"><path fill="#ffffff" d="M 77.390625 77.148438 L 297.609375 77.148438 L 297.609375 297.851562 L 77.390625 297.851562 Z M 77.390625 77.148438 " fill-opacity="1" fill-rule="nonzero"/></g></g><g clip-path="url(#b19c46b531)"><g clip-path="url(#0ccc55e0ee)"><path fill="#ffffff" d="M 77.390625 77.148438 L 297.609375 77.148438 L 297.609375 297.851562 L 77.390625 297.851562 Z M 77.390625 77.148438 " fill-opacity="1" fill-rule="nonzero"/></g></g><g clip-path="url(#121f426ec0)"><g clip-path="url(#6eb10a37d7)"><path fill="#ffffff" d="M 77.390625 77.148438 L 297.609375 77.148438 L 297.609375 297.851562 L 77.390625 297.851562 Z M 77.390625 77.148438 " fill-opacity="1" fill-rule="nonzero"/></g></g><g clip-path="url(#b22e22000c)"><g clip-path="url(#b183f5406f)"><path fill="#ffffff" d="M 77.390625 77.148438 L 297.609375 77.148438 L 297.609375 297.851562 L 77.390625 297.851562 Z M 77.390625 77.148438 " fill-opacity="1" fill-rule="nonzero"/></g></g><g clip-path="url(#3dfecaf38a)"><g clip-path="url(#e6b43f875f)"><path fill="#ffffff" d="M 77.390625 77.148438 L 297.609375 77.148438 L 297.609375 297.851562 L 77.390625 297.851562 Z M 77.390625 77.148438 " fill-opacity="1" fill-rule="nonzero"/></g></g><g clip-path="url(#a33c7c88f3)"><g clip-path="url(#a7508cfb9d)"><path fill="#ffffff" d="M 77.390625 77.148438 L 297.609375 77.148438 L 297.609375 297.851562 L 77.390625 297.851562 Z M 77.390625 77.148438 " fill-opacity="1" fill-rule="nonzero"/></g></g><g clip-path="url(#5c9fbfdc4f)"><g clip-path="url(#fbc41140c9)"><path fill="#ffffff" d="M 77.390625 77.148438 L 297.609375 77.148438 L 297.609375 297.851562 L 77.390625 297.851562 Z M 77.390625 77.148438 " fill-opacity="1" fill-rule="nonzero"/></g></g><g clip-path="url(#83c7dc3c74)"><g clip-path="url(#b7dc48f7d4)"><path fill="#00fffc" d="M 77.390625 77.148438 L 297.609375 77.148438 L 297.609375 297.851562 L 77.390625 297.851562 Z M 77.390625 77.148438 " fill-opacity="1" fill-rule="nonzero"/></g></g><g clip-path="url(#83b8d62791)"><g clip-path="url(#86eb0b627c)"><path fill="#00fffc" d="M 77.390625 77.148438 L 297.609375 77.148438 L 297.609375 297.851562 L 77.390625 297.851562 Z M 77.390625 77.148438 " fill-opacity="1" fill-rule="nonzero"/></g></g><g clip-path="url(#b44f609fb9)"><g clip-path="url(#428b9ae161)"><path fill="#00fffc" d="M 77.390625 77.148438 L 297.609375 77.148438 L 297.609375 297.851562 L 77.390625 297.851562 Z M 77.390625 77.148438 " fill-opacity="1" fill-rule="nonzero"/></g></g><g clip-path="url(#f693b64a70)"><g clip-path="url(#c101030884)"><path fill="#00fffc" d="M 77.390625 77.148438 L 297.609375 77.148438 L 297.609375 297.851562 L 77.390625 297.851562 Z M 77.390625 77.148438 " fill-opacity="1" fill-rule="nonzero"/></g></g></svg>